<svg xmlns="http://www.w3.org/2000/svg" width="16.837" height="21.058" viewBox="0 0 16.837 21.058"><path d="M17.141,31.125a2.481,2.481,0,0,0,2.532-2.79H14.6A2.482,2.482,0,0,0,17.141,31.125Z" transform="translate(-8.733 -10.067)" fill="#f7f7f7"/><path d="M23.384,19.525c-.811-1.068-2.405-1.695-2.405-6.479,0-4.911-2.168-6.884-4.19-7.358-.189-.047-.326-.111-.326-.311V5.225a1.284,1.284,0,1,0-2.568,0v.153c0,.195-.137.263-.326.311-2.026.479-4.19,2.447-4.19,7.358,0,4.784-1.595,5.405-2.405,6.479A1.045,1.045,0,0,0,7.811,21.2H22.553A1.045,1.045,0,0,0,23.384,19.525Z" transform="translate(-6.761 -3.93)" fill="#f7f7f7"/></svg>